#N canvas 571 148 575 705 10;
#X obj 100 120 tgl 50 0 recMsg \$0-x empty 17 7 0 48 -262144 -1 -1
0 127;
#X obj 100 120 cnv 15 50 50 empty recStatus REC 8 27 0 20 -258113 -66577
0;
#X obj 192 376 r recFades;
#X obj 192 401 line~;
#X obj 69 477 *~;
#N canvas 467 29 450 300 layout 0;
#X obj 68 12 r recMsg;
#X obj 7 39 metro 500;
#X obj 7 63 tgl 15 0 empty empty empty 17 7 0 10 -262144 -1 -1 0 1
;
#X obj 7 84 sel 0 1;
#X msg 26 106 symbol STOP;
#X msg 7 126 symbol;
#X obj 68 39 sel 0;
#X msg 61 152 \; recStatus label \$1 \, label_pos 2 27;
#X msg 68 64 \; recStatus label REC \, label_pos 8 27;
#X connect 0 0 1 0;
#X connect 0 0 6 0;
#X connect 1 0 2 0;
#X connect 2 0 3 0;
#X connect 3 0 5 0;
#X connect 3 1 4 0;
#X connect 4 0 7 0;
#X connect 5 0 7 0;
#X connect 6 0 8 0;
#X restore 60 592 pd layout;
#X obj 273 289 t b b, f 11;
#X obj 274 363 pack f f f f f f;
#X obj 69 307 inlet~;
#X obj 132 477 *~;
#X obj 132 307 inlet~;
#X msg 339 562 stop;
#X obj 330 588 s recInstr;
#X obj 339 458 r recMsg;
#X obj 339 479 sel 0;
#X obj 256 589 s recFades;
#X obj 273 410 t b s, f 10;
#X msg 256 460 0 \, 1 50;
#X obj 339 503 t b b;
#X obj 339 540 delay 55;
#X msg 267 541 0 50;
#X obj 273 225 r recMsg;
#X obj 273 268 sel 1;
#X obj 273 246 != 0;
#X obj 57 280 r recInstr;
#X msg 330 432 open -bytes 3 ./\$1.wav \, start;
#X obj 57 500 writesf~ 2;
#X obj 273 311 date;
#X obj 336 311 time;
#X obj 275 385 makesymbol %s|%s|%s@%s%s%s%;
#X connect 2 0 3 0;
#X connect 3 0 4 1;
#X connect 3 0 9 1;
#X connect 4 0 26 0;
#X connect 6 0 27 0;
#X connect 6 1 28 0;
#X connect 7 0 29 0;
#X connect 8 0 4 0;
#X connect 9 0 26 1;
#X connect 10 0 9 0;
#X connect 11 0 12 0;
#X connect 13 0 14 0;
#X connect 14 0 18 0;
#X connect 16 0 17 0;
#X connect 16 1 25 0;
#X connect 17 0 15 0;
#X connect 18 0 19 0;
#X connect 18 1 20 0;
#X connect 19 0 11 0;
#X connect 20 0 15 0;
#X connect 21 0 23 0;
#X connect 22 0 6 0;
#X connect 23 0 22 0;
#X connect 24 0 26 0;
#X connect 25 0 12 0;
#X connect 27 0 7 0;
#X connect 27 1 7 1;
#X connect 27 2 7 2;
#X connect 28 0 7 3;
#X connect 28 1 7 4;
#X connect 28 2 7 5;
#X connect 29 0 16 0;
#X coords 0 -1 1 1 50 70 1 100 100;
