#N canvas 278 781 545 544 10;
#X declare -stdlib zexy;
#X obj 315 366 + 1;
#X obj 287 367 f 1;
#X msg 302 341 1;
#X obj 267 344 bang;
#X obj 51 380 list append;
#X obj 124 380 t l;
#X obj 30 413 list;
#X obj 76 415 list split 1;
#X obj 76 446 outlet;
#X obj 30 42 inlet;
#X obj 287 391 outlet;
#X text 38 510 angel.faraldo@upf.edu \, 2015;
#X obj 144 470 print listdir;
#X msg 38 63 bang;
#X obj 90 284 t s b;
#X msg 144 436 NO MORE FILES MATCHING CRITERIA \, click on path message
to init list.;
#X text 76 62 "bang" to retrieve filenames individually;
#X obj 30 86 route bang refresh;
#X obj 293 107 loadbang;
#X obj 82 106 bang;
#X obj 82 166 symbol \$1;
#X msg 139 234 symbol;
#X obj 293 129 t b b;
#X obj 82 213 t a b;
#X obj 135 107 cyclone/tosymbol;
#X obj 320 157 ggee/getdir 1;
#X obj 51 309 hcs/folder_list;
#X obj 82 192 list prepend;
#X obj 30 18 declare -stdlib zexy;
#X obj 46 255 list2symbol;
#X connect 0 0 1 1;
#X connect 1 0 0 0;
#X connect 1 0 10 0;
#X connect 2 0 1 1;
#X connect 3 0 1 0;
#X connect 4 0 5 0;
#X connect 4 0 6 1;
#X connect 5 0 4 1;
#X connect 6 0 7 0;
#X connect 7 0 8 0;
#X connect 7 1 6 1;
#X connect 7 2 15 0;
#X connect 9 0 17 0;
#X connect 13 0 17 0;
#X connect 14 0 26 0;
#X connect 14 1 2 0;
#X connect 14 1 4 1;
#X connect 15 0 12 0;
#X connect 17 0 6 0;
#X connect 17 1 19 0;
#X connect 17 2 24 0;
#X connect 18 0 22 0;
#X connect 19 0 20 0;
#X connect 20 0 27 0;
#X connect 21 0 29 1;
#X connect 22 0 20 0;
#X connect 22 1 25 0;
#X connect 23 0 29 0;
#X connect 23 1 21 0;
#X connect 24 0 20 0;
#X connect 25 0 27 1;
#X connect 26 0 3 0;
#X connect 26 0 4 0;
#X connect 27 0 23 0;
#X connect 29 0 14 0;
