#N canvas 443 248 781 550 10;
#X obj 13 77 zexy/list2symbol;
#X msg 263 12 prueba de simbolos;
#X obj 261 88 list length;
#X obj 452 168 print l2sv;
#X msg 451 138 incoming data is not a list;
#X obj 297 273 list store;
#X obj 261 47 list;
#X msg 297 253 get \$1 1;
#X obj 342 334 list tosymbol;
#X msg 297 425 \$1\$2;
#X obj 342 293 loadbang;
#X obj 342 374 symbol;
#X msg 342 314 32;
#X obj 349 353 inlet;
#X obj 261 130 until;
#X symbolatom 411 387 10 0 0 0 - - -, f 10;
#X obj 297 403 pack s s;
#X obj 261 189 t b f, f 6;
#X obj 300 480 print asd;
#X obj 261 109 t f f, f 11;
#X obj 261 68 t l l, f 16;
#X obj 261 167 f 0;
#X obj 191 323 print;
#X obj 292 167 - 1;
#X obj 324 130 - 1;
#X connect 1 0 0 0;
#X connect 1 0 6 0;
#X connect 2 0 19 0;
#X connect 4 0 3 0;
#X connect 5 0 16 0;
#X connect 6 0 20 0;
#X connect 7 0 5 0;
#X connect 8 0 11 0;
#X connect 9 0 18 0;
#X connect 10 0 12 0;
#X connect 11 0 16 1;
#X connect 12 0 8 0;
#X connect 13 0 11 0;
#X connect 14 0 21 0;
#X connect 15 0 11 0;
#X connect 16 0 9 0;
#X connect 17 1 7 0;
#X connect 19 0 14 0;
#X connect 19 1 24 0;
#X connect 20 0 2 0;
#X connect 20 1 5 1;
#X connect 21 0 17 0;
#X connect 21 0 23 0;
#X connect 23 0 21 1;
#X connect 24 0 21 1;
