#N canvas 814 126 427 427 10;
#X obj -25 60 list2symbol;
#X msg 38 39 symbol;
#X obj -25 83 fromsymbol;
#X obj 38 18 loadbang;
#X obj -25 6 inlet;
#X obj -25 105 outlet;
#X connect 0 0 2 0;
#X connect 1 0 0 1;
#X connect 2 0 5 0;
#X connect 3 0 1 0;
#X connect 4 0 0 0;
