#N canvas -1 23 556 530 10;
#X obj -26 0 cnv 15 552 40 empty \$0-pddp.cnv.header list2number 3
12 0 18 -204280 -1 0;
#X obj -26 302 cnv 3 550 3 empty \$0-pddp.cnv.inlets inlets 8 12 0
13 -228856 -1 0;
#X obj -26 380 cnv 3 550 3 empty \$0-pddp.cnv.outlets outlets 8 12
0 13 -228856 -1 0;
#X obj 52 311 cnv 17 3 65 empty \$0-pddp.cnv.let.0 0 5 9 0 16 -228856
-162280 0;
#X obj -26 505 cnv 15 552 21 empty \$0-pddp.cnv.footer empty 20 12
0 14 -228856 -66577 0;
#X obj -26 458 cnv 3 550 3 empty \$0-pddp.cnv.argument arguments 8
12 0 13 -228856 -1 0;
#X obj -20 506 pddplink https://github.com/angelfaraldo/pd-symbolic
;
#X text 308 506 angelfaraldo@gmail.com \, 2015-2016;
#X obj 52 389 cnv 17 3 65 empty \$0-pddp.cnv.let.0 0 5 9 0 16 -228856
-162280 0;
#X msg 125 143 1 2 3 4 5 5 5 5 5 5 5 3 2 1;
#X text 72 310 list;
#X text 142 310 - list of integers.;
#X text 116 119 converts numeric lists into a single number;
#X floatatom 125 210 0 0 0 0 - - -;
#X msg 135 163 1 3 3;
#X obj 125 186 list2number;
#X text -25 23 converts a list of into a single number;
#X text 72 388 int;
#X text 142 388 - int composed by the digits of an incoming list.;
#X connect 9 0 15 0;
#X connect 14 0 15 0;
#X connect 15 0 13 0;
