#N canvas 320 23 365 496 10;
#X obj 49 253 list store, f 14;
#X obj 48 124 list length;
#X obj 49 167 gspd/forloop;
#X obj 49 145 t f f, f 8;
#X msg 49 232 get \$1 1;
#X obj 49 212 mod;
#X obj 92 35 inlet;
#X obj 48 35 inlet;
#X obj 174 283 t l;
#X obj 49 319 list length;
#X obj 49 296 t l l, f 13;
#X obj 49 384 list, f 13;
#X obj 49 342 ==, f 8;
#X obj 49 363 sel 1;
#X obj 49 405 outlet;
#X obj 48 103 t l l b, f 28;
#X obj 49 275 list prepend, f 18;
#X obj 49 190 + \$1, f 17;
#X obj 92 55 t b f, f 10;
#X obj 58 81 list;
#X connect 0 0 16 0;
#X connect 1 0 3 0;
#X connect 2 0 17 0;
#X connect 3 0 2 0;
#X connect 3 1 5 1;
#X connect 3 1 12 1;
#X connect 4 0 0 0;
#X connect 5 0 4 0;
#X connect 6 0 18 0;
#X connect 7 0 15 0;
#X connect 7 0 19 1;
#X connect 8 0 16 1;
#X connect 9 0 12 0;
#X connect 10 0 9 0;
#X connect 10 1 11 1;
#X connect 11 0 14 0;
#X connect 12 0 13 0;
#X connect 13 0 11 0;
#X connect 15 0 1 0;
#X connect 15 1 0 1;
#X connect 15 2 16 1;
#X connect 16 0 8 0;
#X connect 16 0 10 0;
#X connect 17 0 5 0;
#X connect 18 0 19 0;
#X connect 18 1 17 1;
#X connect 19 0 15 0;
