#N canvas 0 23 450 300 10;
#X obj 183 145 log;
#X text 221 123 new base;
#X obj 144 119 inlet;
#X obj 144 183 outlet;
#X obj 183 101 loadbang;
#X obj 183 124 \$1;
#X obj 144 162 /;
#X obj 144 140 log;
#X connect 0 0 6 1;
#X connect 2 0 7 0;
#X connect 4 0 5 0;
#X connect 5 0 0 0;
#X connect 6 0 3 0;
#X connect 7 0 6 0;
