#N canvas 550 330 518 487 10;
#X obj 260 178 sqrt;
#X obj 128 312 exp;
#X obj 128 290 * -1;
#X obj 128 203 expr pow($f1 \, 2);
#X obj 13 101 until;
#X obj 13 135 f;
#X obj 43 135 + 1;
#X obj 128 333 *, f 7;
#X msg 58 100 -1500;
#X obj 257 354 + 1500;
#X obj 13 80 t f b, f 8;
#X obj 13 156 t f f f, f 39;
#X msg 13 59 3001;
#X obj 13 179 sel 1500;
#X obj 128 376 tabwrite \$0-distr, f 22;
#X obj 260 222 /;
#X msg 260 200 1 \$1;
#X obj 143 225 expr pow($f1 \, 2);
#X obj 143 247 * 2;
#X obj 128 268 /;
#X obj 344 77 * 0.01;
#X obj 344 56 - 1500;
#X obj 344 120 outlet;
#X obj 344 14 inlet;
#X obj 344 35 array random \$0-distr;
#X obj 13 13 loadbang;
#X obj 128 181 * 0.01;
#X obj 128 355 * 0.01;
#X obj 13 376 array max \$0-distr;
#X obj 13 444 s \$0-distr;
#X obj 127 399 array define \$0-distr 3000;
#X msg 13 422 bounds 0 \$1 3000 0 \, ylabel 0 \$1;
#X obj 344 98 + \$2;
#X obj 153 82 == 0;
#X obj 153 103 sel 0;
#X obj 260 157 * 6.28319;
#X obj 13 36 t b b, f 17;
#X obj 143 133 t f f, f 20;
#X obj 116 59 f \$1;
#X obj 116 103 sel 0;
#X connect 0 0 16 0;
#X connect 1 0 7 0;
#X connect 2 0 1 0;
#X connect 3 0 19 0;
#X connect 4 0 5 0;
#X connect 5 0 6 0;
#X connect 5 0 11 0;
#X connect 6 0 5 1;
#X connect 7 0 27 0;
#X connect 8 0 5 1;
#X connect 9 0 14 1;
#X connect 10 0 4 0;
#X connect 10 1 8 0;
#X connect 11 0 13 0;
#X connect 11 1 26 0;
#X connect 11 2 9 0;
#X connect 12 0 10 0;
#X connect 13 0 28 0;
#X connect 15 0 7 1;
#X connect 16 0 15 0;
#X connect 17 0 18 0;
#X connect 18 0 19 1;
#X connect 19 0 2 0;
#X connect 20 0 32 0;
#X connect 21 0 20 0;
#X connect 23 0 24 0;
#X connect 24 0 21 0;
#X connect 25 0 36 0;
#X connect 26 0 3 0;
#X connect 27 0 14 0;
#X connect 28 0 31 0;
#X connect 31 0 29 0;
#X connect 32 0 22 0;
#X connect 33 0 34 0;
#X connect 34 1 37 0;
#X connect 35 0 0 0;
#X connect 36 0 12 0;
#X connect 36 1 38 0;
#X connect 37 0 17 0;
#X connect 37 1 35 0;
#X connect 38 0 33 0;
#X connect 38 0 39 0;
#X connect 39 1 37 0;
