#N canvas 1615 221 466 355 10;
#X msg -40 32 \; pd dsp 1;
#X obj -40 9 loadbang;
#X obj -36 277 dac~;
#X msg -38 109 station \$1;
#X floatatom -38 85 5 0 7 0 - - -, f 5;
#X symbolatom 13 278 50 0 0 0 - - -, f 50;
#X msg 12 198 1;
#X msg 2 176 0;
#X msg -21 142 recover;
#X text 35 142 try to recover if your signal is not strong enough;
#X text 37 197 (re)connect;
#X text 27 174 disconnect;
#X text 100 11 radioin. An ogg-vorbis internet radio receiver.;
#X text 21 255 3rd outlet outputs the station's name and port;
#X text 35 108 you can select up to 8 different stations (0-7);
#X text 101 31 usage: radioin <station> (0-7);
#X obj -38 233 radioin 6;
#X text -34 332 angelfaraldo@gmail.com;
#X connect 1 0 0 0;
#X connect 3 0 16 0;
#X connect 4 0 3 0;
#X connect 6 0 16 0;
#X connect 7 0 16 0;
#X connect 8 0 16 0;
#X connect 16 0 2 0;
#X connect 16 1 2 1;
#X connect 16 2 5 0;
