#N canvas 597 102 681 570 10;
#X obj 34 318 outlet~;
#X obj 97 209 inlet;
#X obj 203 193 array size \$1;
#X obj 203 60 loadbang;
#X obj 34 253 *~, f 11;
#X obj 476 285 array define \$0-waveform;
#X obj 476 243 + 3;
#X msg 476 264 resize \$1;
#X obj 203 503 tabwrite \$0-waveform;
#X obj 203 481 tabread \$1;
#X obj 203 243 until;
#X msg 248 243 0;
#X obj 203 271 f 0;
#X obj 237 271 + 1;
#X obj 226 426 + 1;
#X obj 256 350 pack 0 0;
#X obj 301 328 + 1;
#X obj 338 348 + 2;
#X obj 249 325 sel 0 1;
#X obj 293 372 pack 1 0;
#X obj 257 426 unpack;
#X obj 203 293 t f f f f, f 12;
#X obj 370 325 sel;
#X obj 370 369 swap, f 9;
#X obj 385 304 - 1;
#X msg 370 347 0;
#X obj 203 221 t f b f f f f f, f 46;
#X obj 34 230 phasor~ 440;
#X obj 370 392 pack 1 0, f 9;
#X obj 34 275 +~ 1;
#X obj 34 296 tabread4~ \$0-waveform;
#X obj 213 80 r \$1;
#X obj 213 122 delay 100;
#X obj 213 101 bang;
#X obj 34 29 inlet;
#X obj 34 51 route float;
#X obj 97 74 t b a a;
#X obj 116 156 unpack s s;
#X connect 1 0 27 1;
#X connect 2 0 26 0;
#X connect 2 0 4 1;
#X connect 3 0 2 0;
#X connect 4 0 29 0;
#X connect 6 0 7 0;
#X connect 7 0 5 0;
#X connect 9 0 8 0;
#X connect 10 0 12 0;
#X connect 11 0 12 1;
#X connect 12 0 13 0;
#X connect 12 0 21 0;
#X connect 13 0 12 1;
#X connect 14 0 8 1;
#X connect 15 0 20 0;
#X connect 16 0 15 1;
#X connect 17 0 19 1;
#X connect 18 0 15 0;
#X connect 18 1 19 0;
#X connect 19 0 20 0;
#X connect 20 0 9 0;
#X connect 20 1 8 1;
#X connect 21 0 9 0;
#X connect 21 1 14 0;
#X connect 21 2 18 0;
#X connect 21 3 22 0;
#X connect 22 0 25 0;
#X connect 23 0 28 0;
#X connect 23 1 28 1;
#X connect 24 0 22 1;
#X connect 25 0 23 0;
#X connect 26 0 10 0;
#X connect 26 1 11 0;
#X connect 26 2 16 0;
#X connect 26 3 17 0;
#X connect 26 4 24 0;
#X connect 26 5 23 1;
#X connect 26 6 6 0;
#X connect 27 0 4 0;
#X connect 28 0 20 0;
#X connect 29 0 30 0;
#X connect 30 0 0 0;
#X connect 31 0 33 0;
#X connect 32 0 2 0;
#X connect 33 0 32 0;
#X connect 34 0 35 0;
#X connect 35 0 27 0;
#X connect 35 1 36 0;
#X connect 36 0 32 0;
#X connect 36 1 37 0;
#X connect 36 2 9 0;
#X connect 37 1 2 1;
