#N canvas 209 339 450 300 10;
#X obj 48 120 textfile;
#X obj 48 145 list length;
#X obj 21 54 symbol \$1;
#X msg 48 97 read \$1 \, rewind \, bang;
#X obj 22 11 inlet;
#X obj 225 34 inlet;
#X obj 22 33 unpack s s, f 32;
#X msg 48 168 resize \$1;
#X obj 21 75 t s s;
#X obj 196 251 s;
#X msg 20 203 read \$1;
#X connect 0 0 1 0;
#X connect 1 0 7 0;
#X connect 2 0 8 0;
#X connect 3 0 0 0;
#X connect 4 0 6 0;
#X connect 5 0 9 1;
#X connect 6 0 2 0;
#X connect 6 1 9 1;
#X connect 7 0 9 0;
#X connect 8 0 10 0;
#X connect 8 1 3 0;
#X connect 10 0 9 0;
