#N canvas 0 22 450 300 10;
#X obj 82 77 >= 0.5;
#X obj 67 103 + 0;
#X obj 55 56 int;
#X obj 55 35 t f f;
#X obj 82 56 wrap;
#X obj 55 12 inlet;
#X obj 67 124 outlet;
#X connect 0 0 1 1;
#X connect 1 0 6 0;
#X connect 2 0 1 0;
#X connect 3 0 2 0;
#X connect 3 1 4 0;
#X connect 4 0 0 0;
#X connect 5 0 3 0;
