#N canvas 737 199 703 437 10;
#X declare -stdlib zexy;
#X obj 51 288 print~ z;
#X obj 170 285 print~ f;
#X obj 214 237 vz~ 1;
#X floatatom 250 209 5 0 0 0 - - -;
#X obj 183 187 unpack~ 64;
#X msg 115 103 2;
#X obj 115 130 t f b;
#X msg 187 120 0 1 2 3 4 5 6 7 8 9 10 11 12 13 14 15 16 17 18 19 20
21 22 23 24 25 26 27 28 29 30 31 32 33 34 35 36 37 38 39 40 41 42 43
44 45 46 47 48 49 50 51 52 53 54 55 56 57 58 59 60 61 62 63;
#X obj 11 20 declare -stdlib zexy;
#X obj 81 256 z~ 1;
#X connect 2 0 1 0;
#X connect 3 0 2 1;
#X connect 3 0 9 1;
#X connect 4 0 2 0;
#X connect 4 0 9 0;
#X connect 5 0 6 0;
#X connect 6 0 0 0;
#X connect 6 0 1 0;
#X connect 6 1 7 0;
#X connect 7 0 4 0;
#X connect 9 0 0 0;
