#N canvas 0 23 450 300 10;
#X obj 8 13 inlet~;
#X obj 8 139 outlet~;
#X obj 8 116 fexpr~ $x1[$f2];
#X obj 96 33 inlet;
#X obj 102 53 loadbang;
#X obj 95 76 f \$1;
#X obj 95 96 * -1;
#X connect 0 0 2 0;
#X connect 2 0 1 0;
#X connect 3 0 5 0;
#X connect 4 0 5 0;
#X connect 5 0 6 0;
#X connect 6 0 2 1;
